<svg width="100%" height="100%" viewBox="0 0 29 29" version="1.1"><path d="M14.878,2.588l2.878,13.328c0.776,0.581 2.011,0.243 2.757,-0.753l4.009,-5.359c0.746,-0.996 0.721,-2.277 -0.055,-2.857l-6.832,-5.113c-0.776,-0.58 -2.012,-0.243 -2.757,0.754Z" style="fill:#3ba4fe;"/><path d="M6.52,1.286c-1.538,-0 -2.796,1.362 -2.796,3.028l-0,20.145c-0,1.666 1.258,3.028 2.796,3.028l14.781,0c1.539,0 2.797,-1.362 2.797,-3.028l0,-11.948c0,-0.003 0,-0.006 0,-0.008c0,-0.312 -0.237,-0.569 -0.525,-0.569c-0.288,-0 -0.525,0.257 -0.525,0.569c-0,0.002 -0,0.005 -0,0.008l-0,11.948c-0,1.051 -0.776,1.891 -1.747,1.891l-14.781,-0c-0.97,-0 -1.746,-0.84 -1.746,-1.891l0,-20.145c0,-1.051 0.776,-1.891 1.746,-1.891l9.564,0l6.165,7.177l-4.929,-0c-0.411,-0 -0.733,-0.348 -0.733,-0.792l0,-3.322c0,-0.003 0,-0.005 0,-0.008c0,-0.312 -0.237,-0.569 -0.525,-0.569c-0.288,0 -0.525,0.257 -0.525,0.569c-0,0.003 -0,0.005 -0,0.008l-0,3.322c-0,1.059 0.804,1.93 1.783,1.93l6.135,-0c0.288,-0.001 0.525,-0.258 0.525,-0.569c-0,-0.144 -0.05,-0.282 -0.14,-0.387l-7.142,-8.314c-0.099,-0.116 -0.239,-0.182 -0.385,-0.182l-9.793,-0Z" style="fill:#fff;fill-rule:nonzero;"/><g><path d="M8.262,24.436l0,-3.054l2.093,0l0,0.517l-1.476,-0l-0,0.722l1.274,0l0,0.517l-1.274,0l-0,1.298l-0.617,-0Z" style="fill-rule:nonzero;"/><path d="M13.382,24.436l-0.671,-0l-0.266,-0.694l-1.221,0l-0.252,0.694l-0.654,-0l1.189,-3.054l0.652,0l1.223,3.054Zm-1.135,-1.208l-0.421,-1.134l-0.412,1.134l0.833,-0Z" style="fill-rule:nonzero;"/><path d="M13.553,23.442l0.6,-0.058c0.036,0.201 0.109,0.349 0.22,0.444c0.11,0.094 0.259,0.141 0.446,0.141c0.199,0 0.349,-0.042 0.449,-0.126c0.101,-0.084 0.151,-0.182 0.151,-0.295c0,-0.072 -0.021,-0.133 -0.063,-0.184c-0.043,-0.051 -0.117,-0.095 -0.222,-0.132c-0.072,-0.025 -0.237,-0.07 -0.494,-0.134c-0.33,-0.081 -0.562,-0.182 -0.696,-0.302c-0.187,-0.168 -0.281,-0.372 -0.281,-0.614c0,-0.156 0.044,-0.301 0.133,-0.436c0.088,-0.136 0.215,-0.239 0.381,-0.31c0.166,-0.071 0.366,-0.106 0.601,-0.106c0.383,-0 0.671,0.084 0.865,0.252c0.194,0.168 0.296,0.392 0.305,0.673l-0.616,0.027c-0.027,-0.157 -0.083,-0.27 -0.17,-0.339c-0.087,-0.068 -0.217,-0.103 -0.391,-0.103c-0.179,0 -0.319,0.037 -0.42,0.111c-0.066,0.047 -0.098,0.11 -0.098,0.189c-0,0.072 0.03,0.134 0.091,0.186c0.078,0.065 0.267,0.133 0.567,0.204c0.3,0.071 0.522,0.144 0.666,0.22c0.143,0.075 0.256,0.179 0.337,0.31c0.081,0.131 0.122,0.293 0.122,0.486c-0,0.175 -0.049,0.339 -0.146,0.492c-0.097,0.153 -0.235,0.266 -0.412,0.34c-0.178,0.075 -0.4,0.112 -0.665,0.112c-0.386,-0 -0.682,-0.089 -0.889,-0.268c-0.207,-0.178 -0.331,-0.438 -0.371,-0.78Z" style="fill-rule:nonzero;"/><path d="M17.242,24.436l-0,-2.537l-0.906,-0l-0,-0.517l2.426,0l0,0.517l-0.904,-0l0,2.537l-0.616,-0Z" style="fill-rule:nonzero;"/><path d="M21.597,24.436l-0.67,-0l-0.267,-0.694l-1.221,0l-0.252,0.694l-0.654,-0l1.19,-3.054l0.652,0l1.222,3.054Zm-1.135,-1.208l-0.421,-1.134l-0.412,1.134l0.833,-0Z" style="fill-rule:nonzero;"/></svg>